<svg width="40" height="40" viewBox="0 0 40 40" fill="none" xmlns="http://www.w3.org/2000/svg">
<rect width="40" height="40" rx="20" fill="#032340"/>
<path d="M5.14413 14.816C5.14413 14.1333 5.36279 13.5733 5.80013 13.136C6.23746 12.688 6.79746 12.464 7.48013 12.464C8.17346 12.464 8.73346 12.688 9.16013 13.136C9.58679 13.5733 9.80013 14.1493 9.80013 14.864V15.408C9.80013 16.1013 9.58146 16.6667 9.14413 17.104C8.71746 17.5307 8.16813 17.744 7.49613 17.744C6.80279 17.744 6.23746 17.5253 5.80013 17.088C5.36279 16.6507 5.14413 16.0747 5.14413 15.36V14.816ZM6.23213 15.408C6.23213 15.824 6.34413 16.1653 6.56813 16.432C6.80279 16.688 7.11213 16.816 7.49613 16.816C7.85879 16.816 8.15213 16.688 8.37613 16.432C8.61079 16.1653 8.72813 15.8133 8.72813 15.376V14.816C8.72813 14.4 8.61613 14.064 8.39213 13.808C8.16813 13.5413 7.86413 13.408 7.48013 13.408C7.09613 13.408 6.79213 13.5413 6.56813 13.808C6.34413 14.0747 6.23213 14.4213 6.23213 14.848V15.408ZM12.5521 13.728L13.3681 14.256L7.81613 23.136L7.00013 22.624L12.5521 13.728ZM10.6801 21.216C10.6801 20.5333 10.8988 19.9733 11.3361 19.536C11.7735 19.088 12.3335 18.864 13.0161 18.864C13.6988 18.864 14.2588 19.0827 14.6961 19.52C15.1335 19.9573 15.3521 20.5387 15.3521 21.264V21.824C15.3521 22.5067 15.1335 23.0667 14.6961 23.504C14.2588 23.9413 13.7041 24.16 13.0321 24.16C12.3388 24.16 11.7735 23.9413 11.3361 23.504C10.8988 23.0667 10.6801 22.4907 10.6801 21.776V21.216ZM11.7681 21.824C11.7681 22.24 11.8801 22.5813 12.1041 22.848C12.3388 23.104 12.6481 23.232 13.0321 23.232C13.4055 23.232 13.7041 23.104 13.9281 22.848C14.1521 22.5813 14.2641 22.2293 14.2641 21.792V21.216C14.2641 20.8 14.1521 20.464 13.9281 20.208C13.7041 19.9413 13.4001 19.808 13.0161 19.808C12.6428 19.808 12.3388 19.9413 12.1041 20.208C11.8801 20.464 11.7681 20.8107 11.7681 21.248V21.824ZM18.4629 23.28C18.4629 22.4053 18.4362 21.5093 18.3829 20.592C18.3402 19.6747 18.2762 18.864 18.1909 18.16C18.0735 17.2213 17.9135 16.4 17.7109 15.696C17.5189 14.9813 17.2789 14.2987 16.9909 13.648L18.3509 12.864C18.5322 13.248 18.6975 13.6853 18.8469 14.176C19.1242 14.912 19.4122 15.456 19.7109 15.808C20.0202 16.16 20.4575 16.336 21.0229 16.336C21.6629 16.336 22.1162 16.1387 22.3829 15.744C22.6495 15.3493 22.7829 14.7947 22.7829 14.08C22.7829 13.888 22.7615 13.5573 22.7189 13.088L23.9189 12.864C23.9935 13.28 24.0309 13.712 24.0309 14.16C24.0309 15.2587 23.7695 16.1493 23.2469 16.832C22.7349 17.5147 21.9935 17.856 21.0229 17.856C20.4575 17.856 19.9562 17.712 19.5189 17.424L19.5829 17.984C19.7322 19.328 19.8069 21.0187 19.8069 23.056V24H18.4629V23.28ZM27.0436 23.28C27.0436 22.4053 27.017 21.5093 26.9636 20.592C26.921 19.6747 26.857 18.864 26.7716 18.16C26.6543 17.2213 26.4943 16.4 26.2916 15.696C26.0996 14.9813 25.8596 14.2987 25.5716 13.648L26.9316 12.864C27.1663 13.344 27.3903 13.9787 27.6036 14.768C27.849 15.6107 28.1956 16.2773 28.6436 16.768L28.5956 16.432C28.553 15.8453 28.665 15.2853 28.9316 14.752C29.1983 14.2187 29.5823 13.792 30.0836 13.472C30.5956 13.1413 31.161 12.976 31.7796 12.976C32.2596 12.976 32.713 13.072 33.1396 13.264C33.5663 13.456 33.993 13.7227 34.4196 14.064L33.8596 15.136C33.5823 14.9547 33.2623 14.8053 32.8996 14.688C32.5476 14.56 32.201 14.496 31.8596 14.496C31.2836 14.496 30.8036 14.6613 30.4196 14.992C30.0356 15.312 29.8436 15.7067 29.8436 16.176C29.8436 16.6667 30.009 17.072 30.3396 17.392C30.6703 17.7013 31.1396 17.856 31.7476 17.856C32.4836 17.856 33.353 17.6053 34.3556 17.104L34.7236 18.416C34.3076 18.6827 33.817 18.9013 33.2516 19.072C32.697 19.232 32.121 19.312 31.5236 19.312C30.9156 19.312 30.3183 19.2107 29.7316 19.008C29.1556 18.8053 28.633 18.4853 28.1636 18.048C28.313 19.392 28.3876 21.0667 28.3876 23.072V24H27.0436V23.28Z" fill="white"/>
</svg>
