<svg width="123" height="40" viewBox="0 0 123 40" fill="none" xmlns="http://www.w3.org/2000/svg">
<path d="M32.839 6.47266V9.10008C32.7211 9.1968 32.6031 9.29888 32.4852 9.40097C29.4031 12.1466 27.6342 16.0904 27.6342 20.2223C27.6342 23.3387 28.6044 26.3046 30.443 28.7977C30.4859 28.8514 30.5234 28.9105 30.5663 28.9643C28.3257 32.3332 24.5306 34.3696 19.7547 34.3696C11.9555 34.3696 6.63281 29.7272 6.63281 20.7489V18.1967H16.7797V20.8671C16.7797 25.1225 22.8046 25.0473 22.8046 20.7919V6.47266H32.839Z" fill="#222222"/>
<path d="M52.0875 27.9016C52.0292 27.7824 51.971 27.6632 51.918 27.544C51.8756 27.452 51.8386 27.3653 51.8015 27.2732C51.7539 27.1595 51.7062 27.0457 51.6638 26.9265C51.6268 26.8399 51.595 26.7478 51.5632 26.6611C51.5103 26.5148 51.4626 26.3686 51.415 26.2223C51.3779 26.1032 51.3408 25.984 51.309 25.8648C51.2773 25.7457 51.2455 25.6211 51.2137 25.5019C51.182 25.3827 51.1555 25.2582 51.129 25.139C51.1025 25.0144 51.076 24.8952 51.0549 24.7706C51.0284 24.6461 51.0125 24.5269 50.9913 24.4023C50.896 23.7848 50.8484 23.1564 50.8484 22.5227V10.1128C48.3966 7.76186 45.2035 6.47266 41.8357 6.47266C38.4679 6.47266 35.4707 7.69144 33.0508 9.9015C30.2284 12.4582 28.6133 16.1417 28.6133 19.9984C28.6133 22.9073 29.5029 25.6752 31.1815 28.0045C33.665 31.4604 37.6471 33.5242 41.8357 33.5242C46.0243 33.5242 49.7893 31.5741 52.2834 28.2861C52.2145 28.1616 52.151 28.0316 52.0875 27.9016ZM41.8357 22.956C40.2418 22.956 38.9445 21.6289 38.9445 19.9984C38.9445 18.368 40.2418 17.0409 41.8357 17.0409C43.4296 17.0409 44.727 18.368 44.727 19.9984C44.727 21.6289 43.4296 22.956 41.8357 22.956Z" fill="#005DDC"/>
<path d="M81.8693 5.62891V32.6805H72.5703V28.4255C72.7331 28.1737 72.8853 27.9111 73.0324 27.6431C73.9775 25.8908 74.4763 23.8973 74.4763 21.877C74.4763 19.8567 73.9775 17.8632 73.0324 16.1108C72.8853 15.8429 72.7331 15.5803 72.5703 15.3285V5.62891H81.8693Z" fill="#222222"/>
<path d="M73.4169 21.572C73.4169 23.4416 72.9479 25.2894 72.0637 26.9137C70.1337 30.4729 66.4408 32.6805 62.4299 32.6805C58.4189 32.6805 54.8878 30.5602 52.9254 27.1371C51.9497 25.4638 51.4375 23.5343 51.4375 21.572V5.62891H59.9123V21.572C59.9123 22.9783 61.039 24.1175 62.4299 24.1175C63.8208 24.1175 64.9475 22.9783 64.9475 21.572C64.9475 20.1658 63.8208 19.0211 62.4299 19.0211H61.5296V10.4582H62.4299C66.4408 10.4582 70.1337 12.6711 72.0637 16.2304C72.9479 17.8547 73.4169 19.7025 73.4169 21.572Z" fill="#222222"/>
<path d="M92.8615 11.5469H83.5625V32.6809H92.8615V11.5469Z" fill="#222222"/>
<path d="M116.53 21.7255V32.6786H107.178V22.1508C107.178 19.471 103.903 19.471 103.903 22.1508V32.6786H94.5508V21.7255C94.5508 7.0238 116.53 7.0238 116.53 21.7255Z" fill="#222222"/>
<path d="M12.1283 14.9286C14.2293 14.9286 15.9325 13.2254 15.9325 11.1244C15.9325 9.02348 14.2293 7.32031 12.1283 7.32031C10.0274 7.32031 8.32422 9.02348 8.32422 11.1244C8.32422 13.2254 10.0274 14.9286 12.1283 14.9286Z" fill="#005DDC"/>
</svg>
