<svg width="68" height="68" viewBox="0 0 68 68" fill="none" xmlns="http://www.w3.org/2000/svg">
<path d="M47.9985 24C47.9985 24.36 47.9785 24.7 47.9385 25.04C47.6985 27.94 46.4185 30.56 44.4785 32.48C42.3185 34.66 39.3185 36 35.9985 36H29.7385C28.7385 36 27.8985 36.74 27.7585 37.72L26.2385 48.28C26.1185 49.06 25.5585 49.7 24.8185 49.9C24.6385 49.98 24.4585 50 24.2585 50H20.3585C19.1185 50 18.1785 48.9 18.3785 47.68L23.1584 19.02C23.6384 16.12 26.1385 14 29.0785 14H37.9985C43.5185 14 47.9985 18.48 47.9985 24Z" fill="#2F5F8A"/>
<path d="M51.9975 31.9993C51.9975 34.7593 50.8775 37.2593 49.0775 39.0793C47.2575 40.8793 44.7575 41.9993 41.9975 41.9993H37.6975C36.7175 41.9993 35.8775 42.6993 35.7175 43.6793L34.2776 52.3193C34.1176 53.2993 33.2775 53.9993 32.2975 53.9993H26.4375C26.0775 53.9993 25.7575 53.9193 25.4775 53.7593C25.0375 53.5193 25.3175 52.9393 25.7975 52.7393C27.5975 52.1593 28.9175 50.6193 29.1975 48.6993L30.4775 39.8593C30.5575 39.3593 30.9775 38.9993 31.4575 38.9993H35.9975C40.0175 38.9993 43.7975 37.4393 46.5975 34.6193C48.2575 32.9793 49.4975 30.9593 50.2175 28.7793C50.3775 28.2793 51.0375 28.1793 51.2575 28.6393C51.7375 29.6793 51.9975 30.7993 51.9975 31.9993Z" fill="#2F5F8A"/>
</svg>
