<svg width="68" height="68" viewBox="0 0 68 68" fill="none" xmlns="http://www.w3.org/2000/svg">
<path d="M53 41C53.56 41 54 41.44 54 42V44C54 47.32 51.32 50 48 50C48 46.7 45.3 44 42 44C38.7 44 36 46.7 36 50H32C32 46.7 29.3 44 26 44C22.7 44 20 46.7 20 50C16.68 50 14 47.32 14 44V40C14 38.9 14.9 38 16 38H35C37.76 38 40 35.76 40 33V22C40 20.9 40.9 20 42 20H43.68C45.12 20 46.44 20.78 47.16 22.02L48.44 24.26C48.62 24.58 48.38 25 48 25C45.24 25 43 27.24 43 30V36C43 38.76 45.24 41 48 41H53Z" fill="#2F5F8A"/>
<path d="M26 54C28.2091 54 30 52.2091 30 50C30 47.7909 28.2091 46 26 46C23.7909 46 22 47.7909 22 50C22 52.2091 23.7909 54 26 54Z" fill="#2F5F8A"/>
<path d="M42 54C44.2091 54 46 52.2091 46 50C46 47.7909 44.2091 46 42 46C39.7909 46 38 47.7909 38 50C38 52.2091 39.7909 54 42 54Z" fill="#2F5F8A"/>
<path d="M54 35.06V38H48C46.9 38 46 37.1 46 36V30C46 28.9 46.9 28 48 28H50.58L53.48 33.08C53.82 33.68 54 34.36 54 35.06Z" fill="#2F5F8A"/>
<path d="M36.16 14H21.38C17.3 14 14 17.3 14 21.38V34.14C14 35.24 14.9 36.14 16 36.14H34.3C36.34 36.14 38 34.48 38 32.44V15.84C38 14.82 37.18 14 36.16 14ZM30.14 24.14L25.96 28.18C25.66 28.46 25.28 28.6 24.92 28.6C24.54 28.6 24.16 28.46 23.88 28.18L21.86 26.26C21.26 25.68 21.24 24.72 21.82 24.12C22.38 23.52 23.34 23.52 23.94 24.08L24.92 25.02L28.06 21.98C28.66 21.4 29.6 21.42 30.18 22.02C30.76 22.62 30.74 23.56 30.14 24.14Z" fill="#2F5F8A"/>
</svg>
