<svg width="68" height="68" viewBox="0 0 68 68" fill="none" xmlns="http://www.w3.org/2000/svg">
<path d="M51.7186 26.7397L37.8586 15.6597C35.7186 13.9397 32.2586 13.9397 30.1386 15.6397L16.2786 26.7397C14.7186 27.9797 13.7186 30.5997 14.0586 32.5597L16.7186 48.4797C17.1986 51.3197 19.9186 53.6197 22.7986 53.6197H45.1986C48.0586 53.6197 50.7986 51.2997 51.2786 48.4797L53.9386 32.5597C54.2586 30.5997 53.2586 27.9797 51.7186 26.7397ZM33.9986 40.9997C31.2386 40.9997 28.9986 38.7597 28.9986 35.9997C28.9986 33.2397 31.2386 30.9997 33.9986 30.9997C36.7586 30.9997 38.9986 33.2397 38.9986 35.9997C38.9986 38.7597 36.7586 40.9997 33.9986 40.9997Z" fill="#2F5F8A"/>
</svg>
