<svg width="14" height="18" viewBox="0 0 14 18" fill="none" xmlns="http://www.w3.org/2000/svg">
<path d="M5.49146 17.062C5.34146 17.062 5.22146 17.032 5.13146 16.9945C4.83146 16.882 4.32146 16.5145 4.32146 15.352V10.5145H2.56646C1.56146 10.5145 1.20146 10.042 1.07396 9.76449C0.94646 9.47949 0.83396 8.90199 1.49396 8.14449L7.17146 1.69449C7.93646 0.824486 8.55896 0.884486 8.85896 0.996986C9.15896 1.10949 9.66896 1.47699 9.66896 2.63949V7.47699H11.424C12.429 7.47699 12.789 7.94949 12.9165 8.22699C13.044 8.51199 13.1565 9.08949 12.4965 9.84699L6.81896 16.297C6.28646 16.9045 5.82146 17.062 5.49146 17.062ZM8.44646 2.05449C8.42396 2.08449 8.26646 2.15949 8.01896 2.44449L2.34146 8.89449C2.13146 9.13449 2.10146 9.28449 2.10146 9.31449C2.11646 9.32199 2.25146 9.39699 2.56646 9.39699H4.88396C5.19146 9.39699 5.44646 9.65199 5.44646 9.95949V15.3595C5.44646 15.7345 5.51396 15.8995 5.54396 15.9445C5.56646 15.9145 5.72396 15.8395 5.97146 15.5545L11.649 9.10449C11.859 8.86449 11.889 8.71449 11.889 8.68449C11.874 8.67699 11.739 8.60199 11.424 8.60199H9.10646C8.79896 8.60199 8.54396 8.34699 8.54396 8.03949V2.63949C8.55146 2.26449 8.47646 2.10699 8.44646 2.05449Z" fill="#FA541C"/>
</svg>
