<svg width="18" height="16" viewBox="0 0 18 16" fill="none" xmlns="http://www.w3.org/2000/svg">
<path d="M13.2451 16.0027C12.8476 16.0027 12.3376 15.8752 11.7001 15.5002L9.45759 14.1727C9.22509 14.0377 8.77509 14.0377 8.55009 14.1727L6.30009 15.5002C4.97259 16.2877 4.19259 15.9727 3.84009 15.7177C3.49509 15.4627 2.95509 14.8102 3.30759 13.3102L3.84009 11.0077C3.90009 10.7677 3.78009 10.3552 3.60009 10.1752L1.74009 8.31524C0.810088 7.38523 0.885088 6.59023 1.01259 6.20023C1.14009 5.81024 1.54509 5.12023 2.83509 4.90273L5.22759 4.50523C5.45259 4.46773 5.77509 4.22773 5.87259 4.02523L7.20009 1.37773C7.80009 0.170234 8.58759 -0.00976562 9.00009 -0.00976562C9.41259 -0.00976562 10.2001 0.170234 10.8001 1.37773L12.1201 4.01773C12.2251 4.22023 12.5476 4.46023 12.7726 4.49773L15.1651 4.89523C16.4626 5.11273 16.8676 5.80273 16.9876 6.19273C17.1076 6.58273 17.1826 7.37773 16.2601 8.30773L14.4001 10.1752C14.2201 10.3552 14.1076 10.7602 14.1601 11.0077L14.6926 13.3102C15.0376 14.8102 14.5051 15.4627 14.1601 15.7177C13.9726 15.8527 13.6726 16.0027 13.2451 16.0027ZM9.00009 12.9427C9.36759 12.9427 9.73509 13.0327 10.0276 13.2052L12.2701 14.5327C12.9226 14.9227 13.3351 14.9227 13.4926 14.8102C13.6501 14.6977 13.7626 14.3002 13.5976 13.5652L13.0651 11.2627C12.9226 10.6402 13.1551 9.83774 13.6051 9.38023L15.4651 7.52023C15.8326 7.15273 15.9976 6.79274 15.9226 6.54523C15.8401 6.29773 15.4951 6.09523 14.9851 6.01273L12.5926 5.61523C12.0151 5.51773 11.3851 5.05273 11.1226 4.52773L9.80259 1.88773C9.56259 1.40773 9.26259 1.12273 9.00009 1.12273C8.73759 1.12273 8.43759 1.40773 8.20509 1.88773L6.87759 4.52773C6.61509 5.05273 5.98509 5.51773 5.40759 5.61523L3.02259 6.01273C2.51259 6.09523 2.16759 6.29773 2.08509 6.54523C2.00259 6.79274 2.17509 7.16023 2.54259 7.52023L4.40259 9.38023C4.85259 9.83023 5.08509 10.6402 4.94259 11.2627L4.41009 13.5652C4.23759 14.3077 4.35759 14.6977 4.51509 14.8102C4.67259 14.9227 5.07759 14.9152 5.73759 14.5327L7.98009 13.2052C8.26509 13.0327 8.63259 12.9427 9.00009 12.9427Z" fill="#FA541C"/>
</svg>
